ply
format ascii 1.0
Created by Blender3D 245 - www.blender.org, source file: 
element vertex 159
property float x
property float y
property float z
element face 96
property list uchar uint vertex_indices
end_header
-1.000000 0.500000 -1.000000 
-1.000000 1.000000 -1.000000 
-0.500000 1.000000 -1.000000 
-0.500000 0.500000 -1.000000 
-1.000000 0.000000 -1.000000 
-0.500000 0.000000 -1.000000 
0.000000 1.000000 -1.000000 
0.000000 0.500000 -1.000000 
0.000000 0.000000 -1.000000 
-1.000000 -0.500000 -1.000000 
-0.500000 -0.500000 -1.000000 
-1.000000 -1.000000 -1.000000 
-0.500000 -1.000000 -1.000000 
0.000000 -0.500000 -1.000000 
0.000000 -1.000000 -1.000000 
0.500000 1.000000 -1.000000 
0.500000 0.500000 -1.000000 
0.500000 0.000000 -1.000000 
1.000000 1.000000 -1.000000 
1.000000 0.500000 -1.000000 
1.000000 0.000000 -1.000000 
0.500000 -0.500000 -1.000000 
0.500000 -1.000000 -1.000000 
1.000000 -0.500000 -1.000000 
1.000000 -1.000000 -1.000000 
-0.500000 1.000000 1.000000 
-1.000000 1.000000 1.000000 
-1.000000 0.500000 1.000000 
-0.500000 0.500000 1.000000 
0.000000 1.000000 1.000000 
0.000000 0.500000 1.000000 
-1.000000 0.000000 1.000000 
-0.500000 0.000000 1.000000 
0.000000 0.000000 1.000000 
0.500000 1.000000 1.000000 
0.500000 0.500000 1.000000 
1.000000 0.999999 1.000000 
1.000000 0.499999 1.000000 
0.500000 0.000000 1.000000 
1.000000 -0.000001 1.000000 
-1.000000 -0.500000 1.000000 
-0.500000 -0.500000 1.000000 
0.000000 -0.500000 1.000000 
-1.000000 -1.000000 1.000000 
-0.500000 -1.000000 1.000000 
-0.000001 -1.000000 1.000000 
0.500000 -0.500000 1.000000 
1.000000 -0.500001 1.000000 
0.499999 -1.000000 1.000000 
0.999999 -1.000001 1.000000 
1.000000 1.000000 0.500000 
1.000000 0.999999 1.000000 
1.000000 0.499999 1.000000 
1.000000 0.500000 0.500000 
1.000000 1.000000 0.000000 
1.000000 0.500000 0.000000 
1.000000 -0.000001 1.000000 
1.000000 0.000000 0.500000 
1.000000 0.000000 0.000000 
1.000000 1.000000 -0.500000 
1.000000 0.500000 -0.500000 
1.000000 1.000000 -1.000000 
1.000000 0.500000 -1.000000 
1.000000 0.000000 -0.500000 
1.000000 0.000000 -1.000000 
1.000000 -0.500001 1.000000 
1.000000 -0.500000 0.500000 
1.000000 -0.500000 0.000000 
1.000000 -0.500000 0.500000 
1.000000 -0.500001 1.000000 
0.999999 -1.000001 1.000000 
1.000000 -1.000000 0.500000 
1.000000 -1.000000 0.500000 
1.000000 -1.000000 0.000000 
1.000000 -0.500000 -0.500000 
1.000000 -0.500000 -1.000000 
1.000000 -1.000000 -0.500000 
1.000000 -1.000000 -1.000000 
1.000000 -1.000000 0.500000 
0.999999 -1.000001 1.000000 
0.499999 -1.000000 1.000000 
0.500000 -1.000000 0.500000 
1.000000 -1.000000 0.000000 
1.000000 -1.000000 0.500000 
0.500000 -1.000000 0.500000 
0.500000 -1.000000 0.000000 
0.499999 -1.000000 1.000000 
-0.000001 -1.000000 1.000000 
0.000000 -1.000000 0.500000 
0.000000 -1.000000 0.000000 
1.000000 -1.000000 -0.500000 
0.500000 -1.000000 -0.500000 
1.000000 -1.000000 -1.000000 
0.500000 -1.000000 -1.000000 
0.000000 -1.000000 -0.500000 
0.000000 -1.000000 -1.000000 
-0.500000 -1.000000 1.000000 
-0.500000 -1.000000 0.500000 
-0.500000 -1.000000 0.000000 
-1.000000 -1.000000 1.000000 
-1.000000 -1.000000 0.500000 
-1.000000 -1.000000 0.000000 
-0.500000 -1.000000 -0.500000 
-0.500000 -1.000000 -1.000000 
-1.000000 -1.000000 -0.500000 
-1.000000 -1.000000 -1.000000 
-1.000000 -1.000000 0.500000 
-1.000000 -1.000000 1.000000 
-1.000000 -0.500000 1.000000 
-1.000000 -0.500000 0.500000 
-1.000000 -1.000000 0.000000 
-1.000000 -0.500000 0.000000 
-1.000000 0.000000 1.000000 
-1.000000 0.000000 0.500000 
-1.000000 0.000000 0.000000 
-1.000000 -1.000000 -0.500000 
-1.000000 -0.500000 -0.500000 
-1.000000 -1.000000 -1.000000 
-1.000000 -0.500000 -1.000000 
-1.000000 0.000000 -0.500000 
-1.000000 0.000000 -1.000000 
-1.000000 0.500000 1.000000 
-1.000000 0.500000 0.500000 
-1.000000 0.500000 0.000000 
-1.000000 1.000000 1.000000 
-1.000000 1.000000 0.500000 
-1.000000 1.000000 0.000000 
-1.000000 0.500000 -0.500000 
-1.000000 0.500000 -1.000000 
-1.000000 1.000000 -0.500000 
-1.000000 1.000000 -1.000000 
-1.000000 1.000000 0.500000 
-1.000000 1.000000 1.000000 
-0.500000 1.000000 1.000000 
-0.500000 1.000000 0.500000 
-1.000000 1.000000 0.000000 
-0.500000 1.000000 0.000000 
0.000000 1.000000 1.000000 
0.000000 1.000000 0.500000 
0.000000 1.000000 0.000000 
-1.000000 1.000000 -0.500000 
-0.500000 1.000000 -0.500000 
-1.000000 1.000000 -1.000000 
-0.500000 1.000000 -1.000000 
0.000000 1.000000 -0.500000 
0.000000 1.000000 -1.000000 
0.500000 1.000000 1.000000 
0.500000 1.000000 0.500000 
0.500000 1.000000 0.000000 
0.500000 1.000000 0.500000 
0.500000 1.000000 1.000000 
1.000000 0.999999 1.000000 
1.000000 1.000000 0.500000 
1.000000 1.000000 0.500000 
1.000000 1.000000 0.000000 
0.500000 1.000000 -0.500000 
0.500000 1.000000 -1.000000 
1.000000 1.000000 -0.500000 
1.000000 1.000000 -1.000000 
4 0 1 2 3 
4 4 0 3 5 
4 3 2 6 7 
4 5 3 7 8 
4 9 4 5 10 
4 11 9 10 12 
4 10 5 8 13 
4 12 10 13 14 
4 7 6 15 16 
4 8 7 16 17 
4 18 19 16 15 
4 17 16 19 20 
4 13 8 17 21 
4 14 13 21 22 
4 21 17 20 23 
4 22 21 23 24 
4 25 26 27 28 
4 29 25 28 30 
4 28 27 31 32 
4 30 28 32 33 
4 34 29 30 35 
4 36 34 35 37 
4 35 30 33 38 
4 37 35 38 39 
4 32 31 40 41 
4 33 32 41 42 
4 41 40 43 44 
4 42 41 44 45 
4 38 33 42 46 
4 39 38 46 47 
4 46 42 45 48 
4 47 46 48 49 
4 50 51 52 53 
4 54 50 53 55 
4 53 52 56 57 
4 55 53 57 58 
4 59 54 55 60 
4 61 59 60 62 
4 60 55 58 63 
4 62 60 63 64 
4 57 56 65 66 
4 58 57 66 67 
4 68 69 70 71 
4 67 66 72 73 
4 63 58 67 74 
4 64 63 74 75 
4 74 67 73 76 
4 75 74 76 77 
4 78 79 80 81 
4 82 83 84 85 
4 84 86 87 88 
4 85 84 88 89 
4 90 82 85 91 
4 92 90 91 93 
4 91 85 89 94 
4 93 91 94 95 
4 88 87 96 97 
4 89 88 97 98 
4 97 96 99 100 
4 98 97 100 101 
4 94 89 98 102 
4 95 94 102 103 
4 102 98 101 104 
4 103 102 104 105 
4 106 107 108 109 
4 110 106 109 111 
4 109 108 112 113 
4 111 109 113 114 
4 115 110 111 116 
4 117 115 116 118 
4 116 111 114 119 
4 118 116 119 120 
4 113 112 121 122 
4 114 113 122 123 
4 122 121 124 125 
4 123 122 125 126 
4 119 114 123 127 
4 120 119 127 128 
4 127 123 126 129 
4 128 127 129 130 
4 131 132 133 134 
4 135 131 134 136 
4 134 133 137 138 
4 136 134 138 139 
4 140 135 136 141 
4 142 140 141 143 
4 141 136 139 144 
4 143 141 144 145 
4 138 137 146 147 
4 139 138 147 148 
4 149 150 151 152 
4 148 147 153 154 
4 144 139 148 155 
4 145 144 155 156 
4 155 148 154 157 
4 157 158 156 155 
