ply
format ascii 1.0
comment modified by differential_ply
element vertex 422
property float32 x
property float32 y
property float32 z
property float32 r
property float32 g
property float32 b
property float32 nx
property float32 ny
property float32 nz
property float32 radius
element face 840
property list uint8 int32 vertex_indices
end_header
0.002285 0.002285 -0.58039 1 1 0 0 0 -1 0.126069 
0.025135 0.116535 -0.57125 1 1 0 0.0500169 0.225076 -0.973056 0.129582 
0.047985 0.111965 -0.57125 1 1 0 0.103976 0.203226 -0.973595 0.125405 
0.070835 0.098255 -0.57125 1 1 0 0.144656 0.176802 -0.973558 0.126152 
0.089115 0.079975 -0.57125 1 1 0 0.182147 0.141404 -0.973051 0.125405 
0.102825 0.061695 -0.57125 1 1 0 0.201336 0.118433 -0.972336 0.129017 
0.116535 0.038845 -0.57125 1 1 0 0.216488 0.0638071 -0.974198 0.125071 
0.121105 0.011425 -0.57125 1 1 0 0.229153 0.0115734 -0.973322 0.125405 
0.121105 -0.011425 -0.57125 1 1 0 0.225359 -0.0308386 -0.973788 0.126152 
0.116535 -0.038845 -0.57125 1 1 0 0.20954 -0.0882275 -0.973811 0.122114 
0.102825 -0.061695 -0.57125 1 1 0 0.191114 -0.127409 -0.973264 0.126069 
0.089115 -0.079975 -0.57125 1 1 0 0.162662 -0.16027 -0.973578 0.126069 
0.070835 -0.098255 -0.57125 1 1 0 0.133481 -0.183254 -0.973961 0.127305 
0.047985 -0.111965 -0.57125 1 1 0 0.0729938 -0.214419 -0.97401 0.124317 
0.025135 -0.116535 -0.57125 1 1 0 0.0349568 -0.224722 -0.973796 0.1264 
0.002285 -0.121105 -0.57125 1 1 0 -0.00914556 -0.226353 -0.974002 0.126069 
-0.025135 -0.116535 -0.57125 1 1 0 -0.0493076 -0.221884 -0.973826 0.129582 
-0.047985 -0.111965 -0.57125 1 1 0 -0.102328 -0.200004 -0.974437 0.125405 
-0.070835 -0.098255 -0.57125 1 1 0 -0.142113 -0.173694 -0.974492 0.126152 
-0.089115 -0.079975 -0.57125 1 1 0 -0.179015 -0.138972 -0.973982 0.125405 
-0.102825 -0.061695 -0.57125 1 1 0 -0.197916 -0.116421 -0.973281 0.129017 
-0.116535 -0.038845 -0.57125 1 1 0 -0.212941 -0.0627617 -0.975047 0.126069 
-0.121105 -0.011425 -0.57125 1 1 0 -0.226096 -0.011419 -0.974038 0.125405 
-0.121105 0.011425 -0.57125 1 1 0 -0.222785 0.0304864 -0.974391 0.126152 
-0.116535 0.038845 -0.57125 1 1 0 -0.207977 0.0875691 -0.974206 0.124653 
-0.102825 0.061695 -0.57125 1 1 0 -0.190458 0.126972 -0.97345 0.126069 
-0.089115 0.079975 -0.57125 1 1 0 -0.162473 0.160083 -0.973641 0.126069 
-0.070835 0.098255 -0.57125 1 1 0 -0.133776 0.183659 -0.973845 0.127305 
-0.047985 0.111965 -0.57125 1 1 0 -0.0734835 0.215858 -0.973656 0.124317 
-0.025135 0.116535 -0.57125 1 1 0 -0.0353 0.226929 -0.973271 0.1264 
-0.002285 0.121105 -0.57125 1 1 0 0.00925893 0.229159 -0.973345 0.126069 
0.047985 0.230785 -0.53469 1 1 0 0.0934214 0.417582 -0.903824 0.138615 
0.098255 0.217075 -0.53469 1 1 0 0.186285 0.387802 -0.902722 0.133159 
0.139385 0.189655 -0.53469 1 1 0 0.270989 0.339905 -0.900572 0.135953 
0.175945 0.157665 -0.53469 1 1 0 0.329413 0.278091 -0.902304 0.135645 
0.203365 0.116535 -0.53469 1 1 0 0.38041 0.206104 -0.901559 0.13526 
0.226215 0.070835 -0.53469 1 1 0 0.414685 0.137836 -0.899465 0.135953 
0.235355 0.025135 -0.53469 1 1 0 0.429264 0.0310024 -0.902647 0.136642 
0.235355 -0.025135 -0.53469 1 1 0 0.432312 -0.0595471 -0.899756 0.135645 
0.226215 -0.070835 -0.53469 1 1 0 0.408151 -0.146791 -0.901036 0.13748 
0.203365 -0.116535 -0.53469 1 1 0 0.366132 -0.229271 -0.901877 0.136566 
0.175945 -0.157665 -0.53469 1 1 0 0.318862 -0.296341 -0.900283 0.136871 
0.139385 -0.189655 -0.53469 1 1 0 0.255658 -0.349598 -0.901344 0.138991 
0.098255 -0.217075 -0.53469 1 1 0 0.167419 -0.395613 -0.903029 0.137708 
0.047985 -0.230785 -0.53469 1 1 0 0.0654298 -0.423509 -0.903526 0.13495 
0.002285 -0.235355 -0.53469 1 1 0 -0.00357915 -0.433077 -0.90135 0.139815 
-0.047985 -0.230785 -0.53469 1 1 0 -0.0934214 -0.417582 -0.903824 0.138615 
-0.098255 -0.217075 -0.53469 1 1 0 -0.186285 -0.387802 -0.902722 0.133159 
-0.139385 -0.189655 -0.53469 1 1 0 -0.270989 -0.339905 -0.900572 0.135953 
-0.175945 -0.157665 -0.53469 1 1 0 -0.329413 -0.278091 -0.902304 0.135645 
-0.203365 -0.116535 -0.53469 1 1 0 -0.38041 -0.206104 -0.901559 0.13526 
-0.226215 -0.070835 -0.53469 1 1 0 -0.414685 -0.137836 -0.899465 0.135953 
-0.235355 -0.025135 -0.53469 1 1 0 -0.429264 -0.0310024 -0.902647 0.136642 
-0.235355 0.025135 -0.53469 1 1 0 -0.432312 0.0595471 -0.899756 0.135645 
-0.226215 0.070835 -0.53469 1 1 0 -0.408151 0.146791 -0.901036 0.13748 
-0.203365 0.116535 -0.53469 1 1 0 -0.366132 0.229271 -0.901877 0.136566 
-0.175945 0.157665 -0.53469 1 1 0 -0.318862 0.296341 -0.900283 0.136871 
-0.139385 0.189655 -0.53469 1 1 0 -0.255658 0.349598 -0.901344 0.138991 
-0.098255 0.217075 -0.53469 1 1 0 -0.167419 0.395613 -0.903029 0.137708 
-0.047985 0.230785 -0.53469 1 1 0 -0.0654298 0.423509 -0.903526 0.13495 
-0.002285 0.235355 -0.53469 1 1 0 0.00357915 0.433077 -0.90135 0.139815 
0.070835 0.335895 -0.47071 1 1 0 0.125014 0.592423 -0.795869 0.146097 
0.139385 0.313045 -0.47071 1 1 0 0.257507 0.547303 -0.796335 0.145452 
0.198795 0.276485 -0.47071 1 1 0 0.369517 0.47726 -0.797295 0.148929 
0.253635 0.226215 -0.47071 1 1 0 0.454132 0.397466 -0.797361 0.144805 
0.294765 0.171375 -0.47071 1 1 0 0.530023 0.292712 -0.795861 0.145452 
0.322185 0.107395 -0.47071 1 1 0 0.581808 0.184106 -0.792215 0.148014 
0.340465 0.034275 -0.47071 1 1 0 0.610676 0.0646306 -0.789239 0.142625 
0.340465 -0.034275 -0.47071 1 1 0 0.604402 -0.0802659 -0.792626 0.146881 
0.322185 -0.107395 -0.47071 1 1 0 0.576021 -0.199018 -0.792838 0.146026 
0.294765 -0.171375 -0.47071 1 1 0 0.518945 -0.308072 -0.797363 0.147094 
0.253635 -0.226215 -0.47071 1 1 0 0.439246 -0.411192 -0.798739 0.148296 
0.198795 -0.276485 -0.47071 1 1 0 0.356715 -0.490382 -0.79516 0.146311 
0.139385 -0.313045 -0.47071 1 1 0 0.247782 -0.55588 -0.793474 0.146026 
0.070835 -0.335895 -0.47071 1 1 0 0.110198 -0.594254 -0.796692 0.143792 
0.002285 -0.340465 -0.47071 1 1 0 -0.00894244 -0.60646 -0.795064 0.147944 
-0.070835 -0.335895 -0.47071 1 1 0 -0.125014 -0.592423 -0.795869 0.146097 
-0.139385 -0.313045 -0.47071 1 1 0 -0.257507 -0.547303 -0.796335 0.145452 
-0.198795 -0.276485 -0.47071 1 1 0 -0.369517 -0.47726 -0.797295 0.148929 
-0.253635 -0.226215 -0.47071 1 1 0 -0.454132 -0.397466 -0.797361 0.144805 
-0.294765 -0.171375 -0.47071 1 1 0 -0.530023 -0.292712 -0.795861 0.145452 
-0.322185 -0.107395 -0.47071 1 1 0 -0.581808 -0.184106 -0.792215 0.148014 
-0.340465 -0.034275 -0.47071 1 1 0 -0.610676 -0.0646306 -0.789239 0.142625 
-0.340465 0.034275 -0.47071 1 1 0 -0.604402 0.0802659 -0.792626 0.146881 
-0.322185 0.107395 -0.47071 1 1 0 -0.576021 0.199018 -0.792838 0.146026 
-0.294765 0.171375 -0.47071 1 1 0 -0.518945 0.308072 -0.797363 0.147094 
-0.253635 0.226215 -0.47071 1 1 0 -0.439246 0.411192 -0.798739 0.148296 
-0.198795 0.276485 -0.47071 1 1 0 -0.356715 0.490382 -0.79516 0.146311 
-0.139385 0.313045 -0.47071 1 1 0 -0.247782 0.55588 -0.793474 0.146026 
-0.070835 0.335895 -0.47071 1 1 0 -0.110198 0.594254 -0.796692 0.143792 
-0.002285 0.340465 -0.47071 1 1 0 0.00894244 0.60646 -0.795064 0.147944 
0.089115 0.422725 -0.38845 1 1 0 0.153986 0.733127 -0.662429 0.153623 
0.175945 0.395305 -0.38845 1 1 0 0.314492 0.681726 -0.660564 0.15301 
0.253635 0.349605 -0.38845 1 1 0 0.445398 0.604046 -0.66087 0.153351 
0.322185 0.290195 -0.38845 1 1 0 0.558381 0.492461 -0.667602 0.154774 
0.372455 0.217075 -0.38845 1 1 0 0.651587 0.358816 -0.668345 0.156051 
0.409015 0.134815 -0.38845 1 1 0 0.709519 0.220028 -0.669455 0.155984 
0.427295 0.043415 -0.38845 1 1 0 0.739002 0.0735133 -0.66968 0.154166 
0.427295 -0.043415 -0.38845 1 1 0 0.742454 -0.08601 -0.664353 0.154166 
0.409015 -0.134815 -0.38845 1 1 0 0.708068 -0.233461 -0.666435 0.151707 
0.372455 -0.217075 -0.38845 1 1 0 0.647318 -0.374246 -0.664017 0.152736 
0.322185 -0.290195 -0.38845 1 1 0 0.549247 -0.506616 -0.664582 0.151707 
0.253635 -0.349605 -0.38845 1 1 0 0.434201 -0.607301 -0.665323 0.154166 
0.175945 -0.395305 -0.38845 1 1 0 0.298883 -0.68596 -0.663421 0.154166 
0.089115 -0.422725 -0.38845 1 1 0 0.147582 -0.735915 -0.660794 0.150948 
0.002285 -0.431865 -0.38845 1 1 0 -0.00791615 -0.750055 -0.661328 0.154233 
-0.089115 -0.422725 -0.38845 1 1 0 -0.153986 -0.733127 -0.662429 0.153623 
-0.175945 -0.395305 -0.38845 1 1 0 -0.314492 -0.681726 -0.660564 0.15301 
-0.253635 -0.349605 -0.38845 1 1 0 -0.445398 -0.604046 -0.66087 0.153351 
-0.322185 -0.290195 -0.38845 1 1 0 -0.558381 -0.492461 -0.667602 0.154774 
-0.372455 -0.217075 -0.38845 1 1 0 -0.651587 -0.358816 -0.668345 0.156051 
-0.409015 -0.134815 -0.38845 1 1 0 -0.709519 -0.220028 -0.669455 0.155984 
-0.427295 -0.043415 -0.38845 1 1 0 -0.739002 -0.0735133 -0.66968 0.154166 
-0.427295 0.043415 -0.38845 1 1 0 -0.742454 0.08601 -0.664353 0.154166 
-0.409015 0.134815 -0.38845 1 1 0 -0.708068 0.233461 -0.666435 0.151707 
-0.372455 0.217075 -0.38845 1 1 0 -0.647318 0.374246 -0.664017 0.152736 
-0.322185 0.290195 -0.38845 1 1 0 -0.549247 0.506616 -0.664582 0.151707 
-0.253635 0.349605 -0.38845 1 1 0 -0.434201 0.607301 -0.665323 0.154166 
-0.175945 0.395305 -0.38845 1 1 0 -0.298883 0.68596 -0.663421 0.154166 
-0.089115 0.422725 -0.38845 1 1 0 -0.147582 0.735915 -0.660794 0.150948 
-0.002285 0.431865 -0.38845 1 1 0 0.00791615 0.750055 -0.661328 0.154233 
0.102825 0.491275 -0.29248 1 1 0 0.178681 0.844752 -0.504447 0.165659 
0.203365 0.459285 -0.29248 1 1 0 0.36331 0.784784 -0.502116 0.162283 
0.294765 0.404445 -0.29248 1 1 0 0.517224 0.699226 -0.493521 0.16254 
0.372455 0.335895 -0.29248 1 1 0 0.645096 0.584909 -0.491663 0.163118 
0.436435 0.249065 -0.29248 1 1 0 0.755939 0.423528 -0.499179 0.160015 
0.477565 0.153095 -0.29248 1 1 0 0.823029 0.266149 -0.501785 0.163054 
0.500415 0.052555 -0.29248 1 1 0 0.855002 0.0867637 -0.511316 0.163054 
0.500415 -0.052555 -0.29248 1 1 0 0.853624 -0.104163 -0.510368 0.16331 
0.477565 -0.153095 -0.29248 1 1 0 0.821033 -0.269441 -0.503296 0.16509 
0.436435 -0.249065 -0.29248 1 1 0 0.745919 -0.438628 -0.501208 0.164011 
0.372455 -0.335895 -0.29248 1 1 0 0.641702 -0.587522 -0.492988 0.163054 
0.294765 -0.404445 -0.29248 1 1 0 0.509673 -0.703348 -0.495515 0.16382 
0.203365 -0.459285 -0.29248 1 1 0 0.351537 -0.789491 -0.503115 0.162283 
0.102825 -0.491275 -0.29248 1 1 0 0.164689 -0.847336 -0.504875 0.160211 
0.002285 -0.500415 -0.29248 1 1 0 -0.00170641 -0.866856 -0.498556 0.166852 
-0.102825 -0.491275 -0.29248 1 1 0 -0.178681 -0.844752 -0.504447 0.165659 
-0.203365 -0.459285 -0.29248 1 1 0 -0.36331 -0.784784 -0.502116 0.162283 
-0.294765 -0.404445 -0.29248 1 1 0 -0.517224 -0.699226 -0.493521 0.16254 
-0.372455 -0.335895 -0.29248 1 1 0 -0.645096 -0.584909 -0.491663 0.163118 
-0.436435 -0.249065 -0.29248 1 1 0 -0.755939 -0.423528 -0.499179 0.160015 
-0.477565 -0.153095 -0.29248 1 1 0 -0.823029 -0.266149 -0.501785 0.163054 
-0.500415 -0.052555 -0.29248 1 1 0 -0.855002 -0.0867637 -0.511316 0.163054 
-0.500415 0.052555 -0.29248 1 1 0 -0.853624 0.104163 -0.510368 0.16331 
-0.477565 0.153095 -0.29248 1 1 0 -0.821033 0.269441 -0.503296 0.16509 
-0.436435 0.249065 -0.29248 1 1 0 -0.745919 0.438628 -0.501208 0.164011 
-0.372455 0.335895 -0.29248 1 1 0 -0.641702 0.587522 -0.492988 0.163054 
-0.294765 0.404445 -0.29248 1 1 0 -0.509673 0.703348 -0.495515 0.16382 
-0.203365 0.459285 -0.29248 1 1 0 -0.351537 0.789491 -0.503115 0.162283 
-0.102825 0.491275 -0.29248 1 1 0 -0.164689 0.847336 -0.504875 0.160211 
-0.002285 0.500415 -0.29248 1 1 0 0.00170641 0.866856 -0.498556 0.166852 
0.116535 0.541545 -0.1828 1 1 0 0.190198 0.931366 -0.310455 0.168595 
0.226215 0.504985 -0.1828 1 1 0 0.396686 0.860675 -0.319184 0.168843 
0.322185 0.445575 -0.1828 1 1 0 0.572249 0.754375 -0.321636 0.169398 
0.409015 0.367885 -0.1828 1 1 0 0.701386 0.642343 -0.308956 0.168843 
0.477565 0.276485 -0.1828 1 1 0 0.820889 0.47576 -0.315902 0.169337 
0.523265 0.171375 -0.1828 1 1 0 0.904309 0.28948 -0.31373 0.169337 
0.550685 0.057125 -0.1828 1 1 0 0.947474 0.106686 -0.301515 0.169583 
0.550685 -0.057125 -0.1828 1 1 0 0.943926 -0.108876 -0.311688 0.171299 
0.523265 -0.171375 -0.1828 1 1 0 0.897335 -0.304669 -0.319322 0.169583 
0.477565 -0.276485 -0.1828 1 1 0 0.818825 -0.481572 -0.312433 0.169337 
0.409015 -0.367885 -0.1828 1 1 0 0.70158 -0.639869 -0.313612 0.170075 
0.322185 -0.445575 -0.1828 1 1 0 0.560014 -0.765879 -0.315932 0.168595 
0.226215 -0.504985 -0.1828 1 1 0 0.395613 -0.864924 -0.308865 0.169398 
0.116535 -0.541545 -0.1828 1 1 0 0.189892 -0.930116 -0.314366 0.168843 
0.002285 -0.550685 -0.1828 1 1 0 -0.00753319 -0.949182 -0.314636 0.171847 
-0.116535 -0.541545 -0.1828 1 1 0 -0.190198 -0.931366 -0.310455 0.168595 
-0.226215 -0.504985 -0.1828 1 1 0 -0.396686 -0.860675 -0.319184 0.168843 
-0.322185 -0.445575 -0.1828 1 1 0 -0.572249 -0.754375 -0.321636 0.169398 
-0.409015 -0.367885 -0.1828 1 1 0 -0.701386 -0.642343 -0.308956 0.168843 
-0.477565 -0.276485 -0.1828 1 1 0 -0.820889 -0.47576 -0.315902 0.169337 
-0.523265 -0.171375 -0.1828 1 1 0 -0.904309 -0.28948 -0.31373 0.169337 
-0.550685 -0.057125 -0.1828 1 1 0 -0.947474 -0.106686 -0.301515 0.169583 
-0.550685 0.057125 -0.1828 1 1 0 -0.943926 0.108876 -0.311688 0.171299 
-0.523265 0.171375 -0.1828 1 1 0 -0.897335 0.304669 -0.319322 0.169583 
-0.477565 0.276485 -0.1828 1 1 0 -0.818825 0.481572 -0.312433 0.169337 
-0.409015 0.367885 -0.1828 1 1 0 -0.70158 0.639869 -0.313612 0.170075 
-0.322185 0.445575 -0.1828 1 1 0 -0.560014 0.765879 -0.315932 0.168595 
-0.226215 0.504985 -0.1828 1 1 0 -0.395613 0.864924 -0.308865 0.169398 
-0.116535 0.541545 -0.1828 1 1 0 -0.189892 0.930116 -0.314366 0.168843 
-0.002285 0.550685 -0.1828 1 1 0 0.00753319 0.949182 -0.314636 0.171847 
0.121105 0.564395 -0.06398 1 1 0 0.201854 0.974165 -0.101283 0.172089 
0.235355 0.527835 -0.06398 1 1 0 0.401754 0.910433 -0.0985161 0.172635 
0.340465 0.468425 -0.06398 1 1 0 0.596696 0.794547 -0.11247 0.171847 
0.427295 0.386165 -0.06398 1 1 0 0.737279 0.666571 -0.110017 0.172574 
0.500415 0.290195 -0.06398 1 1 0 0.854011 0.50909 -0.107202 0.172574 
0.550685 0.180515 -0.06398 1 1 0 0.947619 0.2982 -0.114434 0.172816 
0.573535 0.061695 -0.06398 1 1 0 0.989786 0.0994985 -0.102098 0.1745 
0.573535 -0.061695 -0.06398 1 1 0 0.990997 -0.0952652 -0.0940744 0.172816 
0.550685 -0.180515 -0.06398 1 1 0 0.943923 -0.311055 -0.110698 0.172574 
0.500415 -0.290195 -0.06398 1 1 0 0.852889 -0.510052 -0.111476 0.172574 
0.427295 -0.386165 -0.06398 1 1 0 0.740012 -0.664157 -0.106198 0.171847 
0.340465 -0.468425 -0.06398 1 1 0 0.585251 -0.802678 -0.11484 0.172635 
0.235355 -0.527835 -0.06398 1 1 0 0.402572 -0.909228 -0.106016 0.172089 
0.121105 -0.564395 -0.06398 1 1 0 0.210534 -0.972756 -0.0970583 0.171847 
0.002285 -0.578105 -0.06398 1 1 0 -0.00688562 -0.994379 -0.105659 0.175038 
-0.121105 -0.564395 -0.06398 1 1 0 -0.201854 -0.974165 -0.101283 0.172089 
-0.235355 -0.527835 -0.06398 1 1 0 -0.401754 -0.910433 -0.0985161 0.172635 
-0.340465 -0.468425 -0.06398 1 1 0 -0.596696 -0.794547 -0.11247 0.171847 
-0.427295 -0.386165 -0.06398 1 1 0 -0.737279 -0.666571 -0.110017 0.172574 
-0.500415 -0.290195 -0.06398 1 1 0 -0.854011 -0.50909 -0.107202 0.172574 
-0.550685 -0.180515 -0.06398 1 1 0 -0.947619 -0.2982 -0.114434 0.172816 
-0.573535 -0.061695 -0.06398 1 1 0 -0.989786 -0.0994985 -0.102098 0.1745 
-0.573535 0.061695 -0.06398 1 1 0 -0.990997 0.0952652 -0.0940744 0.172816 
-0.550685 0.180515 -0.06398 1 1 0 -0.943923 0.311055 -0.110698 0.172574 
-0.500415 0.290195 -0.06398 1 1 0 -0.852889 0.510052 -0.111476 0.172574 
-0.427295 0.386165 -0.06398 1 1 0 -0.740012 0.664157 -0.106198 0.171847 
-0.340465 0.468425 -0.06398 1 1 0 -0.585251 0.802678 -0.11484 0.172635 
-0.235355 0.527835 -0.06398 1 1 0 -0.402572 0.909228 -0.106016 0.172089 
-0.121105 0.564395 -0.06398 1 1 0 -0.210534 0.972756 -0.0970583 0.171847 
-0.002285 0.578105 -0.06398 1 1 0 0.00688562 0.994379 -0.105659 0.175038 
0.121105 0.564395 0.05941 1 1 0 0.206626 0.973655 0.0964414 0.175038 
0.235355 0.527835 0.05941 1 1 0 0.402572 0.909228 0.106016 0.172089 
0.340465 0.468425 0.05941 1 1 0 0.585251 0.802678 0.11484 0.172635 
0.427295 0.386165 0.05941 1 1 0 0.740012 0.664157 0.106198 0.171847 
0.500415 0.290195 0.05941 1 1 0 0.852889 0.510052 0.111476 0.172574 
0.550685 0.180515 0.05941 1 1 0 0.943923 0.311055 0.110698 0.172574 
0.573535 0.061695 0.05941 1 1 0 0.990997 0.0952652 0.0940744 0.172816 
0.573535 -0.061695 0.05941 1 1 0 0.989786 -0.0994985 0.102098 0.1745 
0.550685 -0.180515 0.05941 1 1 0 0.947619 -0.2982 0.114434 0.172816 
0.500415 -0.290195 0.05941 1 1 0 0.854011 -0.50909 0.107202 0.172574 
0.427295 -0.386165 0.05941 1 1 0 0.737279 -0.666571 0.110017 0.172574 
0.340465 -0.468425 0.05941 1 1 0 0.596696 -0.794547 0.11247 0.171847 
0.235355 -0.527835 0.05941 1 1 0 0.401754 -0.910433 0.0985161 0.172635 
0.121105 -0.564395 0.05941 1 1 0 0.205661 -0.973446 0.100535 0.172089 
0.002285 -0.578105 0.05941 1 1 0 0.00688638 -0.99425 0.106858 0.171968 
-0.121105 -0.564395 0.05941 1 1 0 -0.206626 -0.973655 0.0964414 0.175038 
-0.235355 -0.527835 0.05941 1 1 0 -0.402572 -0.909228 0.106016 0.172089 
-0.340465 -0.468425 0.05941 1 1 0 -0.585251 -0.802678 0.11484 0.172635 
-0.427295 -0.386165 0.05941 1 1 0 -0.740012 -0.664157 0.106198 0.171847 
-0.500415 -0.290195 0.05941 1 1 0 -0.852889 -0.510052 0.111476 0.172574 
-0.550685 -0.180515 0.05941 1 1 0 -0.943923 -0.311055 0.110698 0.172574 
-0.573535 -0.061695 0.05941 1 1 0 -0.990997 -0.0952652 0.0940744 0.172816 
-0.573535 0.061695 0.05941 1 1 0 -0.989786 0.0994985 0.102098 0.1745 
-0.550685 0.180515 0.05941 1 1 0 -0.947619 0.2982 0.114434 0.172816 
-0.500415 0.290195 0.05941 1 1 0 -0.854011 0.50909 0.107202 0.172574 
-0.427295 0.386165 0.05941 1 1 0 -0.737279 0.666571 0.110017 0.172574 
-0.340465 0.468425 0.05941 1 1 0 -0.596696 0.794547 0.11247 0.171847 
-0.235355 0.527835 0.05941 1 1 0 -0.401754 0.910433 0.0985161 0.172635 
-0.121105 0.564395 0.05941 1 1 0 -0.205661 0.973446 0.100535 0.172089 
-0.002285 0.578105 0.05941 1 1 0 -0.00688638 0.99425 0.106858 0.171968 
0.116535 0.541545 0.17823 1 1 0 0.186212 0.931062 0.313765 0.171968 
0.226215 0.504985 0.17823 1 1 0 0.395613 0.864924 0.308865 0.169398 
0.322185 0.445575 0.17823 1 1 0 0.560014 0.765879 0.315932 0.168595 
0.409015 0.367885 0.17823 1 1 0 0.70158 0.639869 0.313612 0.170075 
0.477565 0.276485 0.17823 1 1 0 0.818825 0.481572 0.312433 0.169337 
0.523265 0.171375 0.17823 1 1 0 0.897335 0.304669 0.319322 0.169583 
0.550685 0.057125 0.17823 1 1 0 0.943926 0.108876 0.311688 0.171299 
0.550685 -0.057125 0.17823 1 1 0 0.947474 -0.106686 0.301515 0.169583 
0.523265 -0.171375 0.17823 1 1 0 0.904309 -0.28948 0.31373 0.169337 
0.477565 -0.276485 0.17823 1 1 0 0.820889 -0.47576 0.315902 0.169337 
0.409015 -0.367885 0.17823 1 1 0 0.701386 -0.642343 0.308956 0.168843 
0.322185 -0.445575 0.17823 1 1 0 0.572249 -0.754375 0.321636 0.169398 
0.226215 -0.504985 0.17823 1 1 0 0.396686 -0.860675 0.319184 0.168843 
0.116535 -0.541545 0.17823 1 1 0 0.193969 -0.930845 0.309683 0.168595 
0.002285 -0.550685 0.17823 1 1 0 0.0075332 -0.948682 0.316143 0.168595 
-0.116535 -0.541545 0.17823 1 1 0 -0.186212 -0.931062 0.313765 0.171968 
-0.226215 -0.504985 0.17823 1 1 0 -0.395613 -0.864924 0.308865 0.169398 
-0.322185 -0.445575 0.17823 1 1 0 -0.560014 -0.765879 0.315932 0.168595 
-0.409015 -0.367885 0.17823 1 1 0 -0.70158 -0.639869 0.313612 0.170075 
-0.477565 -0.276485 0.17823 1 1 0 -0.818825 -0.481572 0.312433 0.169337 
-0.523265 -0.171375 0.17823 1 1 0 -0.897335 -0.304669 0.319322 0.169583 
-0.550685 -0.057125 0.17823 1 1 0 -0.943926 -0.108876 0.311688 0.171299 
-0.550685 0.057125 0.17823 1 1 0 -0.947474 0.106686 0.301515 0.169583 
-0.523265 0.171375 0.17823 1 1 0 -0.904309 0.28948 0.31373 0.169337 
-0.477565 0.276485 0.17823 1 1 0 -0.820889 0.47576 0.315902 0.169337 
-0.409015 0.367885 0.17823 1 1 0 -0.701386 0.642343 0.308956 0.168843 
-0.322185 0.445575 0.17823 1 1 0 -0.572249 0.754375 0.321636 0.169398 
-0.226215 0.504985 0.17823 1 1 0 -0.396686 0.860675 0.319184 0.168843 
-0.116535 0.541545 0.17823 1 1 0 -0.193969 0.930845 0.309683 0.168595 
-0.002285 0.550685 0.17823 1 1 0 -0.0075332 0.948682 0.316143 0.168595 
0.102825 0.491275 0.28791 1 1 0 0.161151 0.848341 0.504329 0.163118 
0.203365 0.459285 0.28791 1 1 0 0.351537 0.789491 0.503115 0.162283 
0.294765 0.404445 0.28791 1 1 0 0.509673 0.703348 0.495515 0.16382 
0.372455 0.335895 0.28791 1 1 0 0.641702 0.587522 0.492988 0.163054 
0.436435 0.249065 0.28791 1 1 0 0.745919 0.438628 0.501208 0.164011 
0.477565 0.153095 0.28791 1 1 0 0.821033 0.269441 0.503296 0.16509 
0.500415 0.052555 0.28791 1 1 0 0.853624 0.104163 0.510368 0.16331 
0.500415 -0.052555 0.28791 1 1 0 0.855002 -0.0867637 0.511316 0.163054 
0.477565 -0.153095 0.28791 1 1 0 0.823029 -0.266149 0.501785 0.163054 
0.436435 -0.249065 0.28791 1 1 0 0.755939 -0.423528 0.499179 0.160015 
0.372455 -0.335895 0.28791 1 1 0 0.645096 -0.584909 0.491663 0.163118 
0.294765 -0.404445 0.28791 1 1 0 0.517224 -0.699226 0.493521 0.16254 
0.203365 -0.459285 0.28791 1 1 0 0.36331 -0.784784 0.502116 0.162283 
0.102825 -0.491275 0.28791 1 1 0 0.182582 -0.844337 0.503745 0.165659 
0.002285 -0.500415 0.28791 1 1 0 0.0017067 -0.866151 0.499779 0.163629 
-0.102825 -0.491275 0.28791 1 1 0 -0.161151 -0.848341 0.504329 0.163118 
-0.203365 -0.459285 0.28791 1 1 0 -0.351537 -0.789491 0.503115 0.162283 
-0.294765 -0.404445 0.28791 1 1 0 -0.509673 -0.703348 0.495515 0.16382 
-0.372455 -0.335895 0.28791 1 1 0 -0.641702 -0.587522 0.492988 0.163054 
-0.436435 -0.249065 0.28791 1 1 0 -0.745919 -0.438628 0.501208 0.164011 
-0.477565 -0.153095 0.28791 1 1 0 -0.821033 -0.269441 0.503296 0.16509 
-0.500415 -0.052555 0.28791 1 1 0 -0.853624 -0.104163 0.510368 0.16331 
-0.500415 0.052555 0.28791 1 1 0 -0.855002 0.0867637 0.511316 0.163054 
-0.477565 0.153095 0.28791 1 1 0 -0.823029 0.266149 0.501785 0.163054 
-0.436435 0.249065 0.28791 1 1 0 -0.755939 0.423528 0.499179 0.160015 
-0.372455 0.335895 0.28791 1 1 0 -0.645096 0.584909 0.491663 0.163118 
-0.294765 0.404445 0.28791 1 1 0 -0.517224 0.699226 0.493521 0.16254 
-0.203365 0.459285 0.28791 1 1 0 -0.36331 0.784784 0.502116 0.162283 
-0.102825 0.491275 0.28791 1 1 0 -0.182582 0.844337 0.503745 0.165659 
-0.002285 0.500415 0.28791 1 1 0 -0.0017067 0.866151 0.499779 0.163629 
0.089115 0.422725 0.38388 1 1 0 0.14392 0.737101 0.660279 0.153623 
0.175945 0.395305 0.38388 1 1 0 0.298883 0.68596 0.663421 0.154166 
0.253635 0.349605 0.38388 1 1 0 0.434201 0.607301 0.665323 0.154166 
0.322185 0.290195 0.38388 1 1 0 0.549247 0.506616 0.664582 0.151707 
0.372455 0.217075 0.38388 1 1 0 0.647318 0.374246 0.664017 0.152736 
0.409015 0.134815 0.38388 1 1 0 0.708068 0.233461 0.666435 0.151707 
0.427295 0.043415 0.38388 1 1 0 0.742454 0.08601 0.664353 0.154166 
0.427295 -0.043415 0.38388 1 1 0 0.739002 -0.0735133 0.66968 0.154166 
0.409015 -0.134815 0.38388 1 1 0 0.709519 -0.220028 0.669455 0.155984 
0.372455 -0.217075 0.38388 1 1 0 0.651587 -0.358816 0.668345 0.156051 
0.322185 -0.290195 0.38388 1 1 0 0.558381 -0.492461 0.667602 0.154774 
0.253635 -0.349605 0.38388 1 1 0 0.445398 -0.604046 0.66087 0.153351 
0.175945 -0.395305 0.38388 1 1 0 0.314492 -0.681726 0.660564 0.15301 
0.089115 -0.422725 0.38388 1 1 0 0.157939 -0.733075 0.661556 0.153623 
0.002285 -0.431865 0.38388 1 1 0 0.0079151 -0.748967 0.66256 0.151156 
-0.089115 -0.422725 0.38388 1 1 0 -0.14392 -0.737101 0.660279 0.153623 
-0.175945 -0.395305 0.38388 1 1 0 -0.298883 -0.68596 0.663421 0.154166 
-0.253635 -0.349605 0.38388 1 1 0 -0.434201 -0.607301 0.665323 0.154166 
-0.322185 -0.290195 0.38388 1 1 0 -0.549247 -0.506616 0.664582 0.151707 
-0.372455 -0.217075 0.38388 1 1 0 -0.647318 -0.374246 0.664017 0.152736 
-0.409015 -0.134815 0.38388 1 1 0 -0.708068 -0.233461 0.666435 0.151707 
-0.427295 -0.043415 0.38388 1 1 0 -0.742454 -0.08601 0.664353 0.154166 
-0.427295 0.043415 0.38388 1 1 0 -0.739002 0.0735133 0.66968 0.154166 
-0.409015 0.134815 0.38388 1 1 0 -0.709519 0.220028 0.669455 0.155984 
-0.372455 0.217075 0.38388 1 1 0 -0.651587 0.358816 0.668345 0.156051 
-0.322185 0.290195 0.38388 1 1 0 -0.558381 0.492461 0.667602 0.154774 
-0.253635 0.349605 0.38388 1 1 0 -0.445398 0.604046 0.66087 0.153351 
-0.175945 0.395305 0.38388 1 1 0 -0.314492 0.681726 0.660564 0.15301 
-0.089115 0.422725 0.38388 1 1 0 -0.157939 0.733075 0.661556 0.153623 
-0.002285 0.431865 0.38388 1 1 0 -0.0079151 0.748967 0.66256 0.151156 
0.070835 0.335895 0.46614 1 1 0 0.106751 0.595432 0.796282 0.146026 
0.139385 0.313045 0.46614 1 1 0 0.247782 0.55588 0.793474 0.146026 
0.198795 0.276485 0.46614 1 1 0 0.356715 0.490382 0.79516 0.146311 
0.253635 0.226215 0.46614 1 1 0 0.439246 0.411192 0.798739 0.148296 
0.294765 0.171375 0.46614 1 1 0 0.518945 0.308072 0.797363 0.147094 
0.322185 0.107395 0.46614 1 1 0 0.576021 0.199018 0.792838 0.146026 
0.340465 0.034275 0.46614 1 1 0 0.604402 0.0802659 0.792626 0.146881 
0.340465 -0.034275 0.46614 1 1 0 0.610676 -0.0646306 0.789239 0.142625 
0.322185 -0.107395 0.46614 1 1 0 0.581808 -0.184106 0.792215 0.148014 
0.294765 -0.171375 0.46614 1 1 0 0.530023 -0.292712 0.795861 0.145452 
0.253635 -0.226215 0.46614 1 1 0 0.454132 -0.397466 0.797361 0.144805 
0.198795 -0.276485 0.46614 1 1 0 0.369517 -0.47726 0.797295 0.148929 
0.139385 -0.313045 0.46614 1 1 0 0.257507 -0.547303 0.796335 0.145452 
0.070835 -0.335895 0.46614 1 1 0 0.129072 -0.592743 0.794982 0.146097 
0.002285 -0.340465 0.46614 1 1 0 0.00893967 -0.604647 0.796443 0.145165 
-0.070835 -0.335895 0.46614 1 1 0 -0.106751 -0.595432 0.796282 0.146026 
-0.139385 -0.313045 0.46614 1 1 0 -0.247782 -0.55588 0.793474 0.146026 
-0.198795 -0.276485 0.46614 1 1 0 -0.356715 -0.490382 0.79516 0.146311 
-0.253635 -0.226215 0.46614 1 1 0 -0.439246 -0.411192 0.798739 0.148296 
-0.294765 -0.171375 0.46614 1 1 0 -0.518945 -0.308072 0.797363 0.147094 
-0.322185 -0.107395 0.46614 1 1 0 -0.576021 -0.199018 0.792838 0.146026 
-0.340465 -0.034275 0.46614 1 1 0 -0.604402 -0.0802659 0.792626 0.146881 
-0.340465 0.034275 0.46614 1 1 0 -0.610676 0.0646306 0.789239 0.142625 
-0.322185 0.107395 0.46614 1 1 0 -0.581808 0.184106 0.792215 0.148014 
-0.294765 0.171375 0.46614 1 1 0 -0.530023 0.292712 0.795861 0.145452 
-0.253635 0.226215 0.46614 1 1 0 -0.454132 0.397466 0.797361 0.144805 
-0.198795 0.276485 0.46614 1 1 0 -0.369517 0.47726 0.797295 0.148929 
-0.139385 0.313045 0.46614 1 1 0 -0.257507 0.547303 0.796335 0.145452 
-0.070835 0.335895 0.46614 1 1 0 -0.129072 0.592743 0.794982 0.146097 
-0.002285 0.340465 0.46614 1 1 0 -0.00893967 0.604647 0.796443 0.145165 
0.047985 0.230785 0.53012 1 1 0 0.0624788 0.424856 0.903102 0.136566 
0.098255 0.217075 0.53012 1 1 0 0.167419 0.395613 0.903029 0.137708 
0.139385 0.189655 0.53012 1 1 0 0.255658 0.349598 0.901344 0.138991 
0.175945 0.157665 0.53012 1 1 0 0.318862 0.296341 0.900283 0.136871 
0.203365 0.116535 0.53012 1 1 0 0.366132 0.229271 0.901877 0.136566 
0.226215 0.070835 0.53012 1 1 0 0.408151 0.146791 0.901036 0.13748 
0.235355 0.025135 0.53012 1 1 0 0.432312 0.0595471 0.899756 0.135645 
0.235355 -0.025135 0.53012 1 1 0 0.429264 -0.0310024 0.902647 0.136642 
0.226215 -0.070835 0.53012 1 1 0 0.414685 -0.137836 0.899465 0.135953 
0.203365 -0.116535 0.53012 1 1 0 0.38041 -0.206104 0.901559 0.13526 
0.175945 -0.157665 0.53012 1 1 0 0.329413 -0.278091 0.902304 0.135645 
0.139385 -0.189655 0.53012 1 1 0 0.270989 -0.339905 0.900572 0.135953 
0.098255 -0.217075 0.53012 1 1 0 0.186285 -0.387802 0.902722 0.133159 
0.047985 -0.230785 0.53012 1 1 0 0.0977386 -0.419216 0.90261 0.138615 
0.002285 -0.235355 0.53012 1 1 0 0.00358083 -0.429699 0.902965 0.13748 
-0.047985 -0.230785 0.53012 1 1 0 -0.0624788 -0.424856 0.903102 0.136566 
-0.098255 -0.217075 0.53012 1 1 0 -0.167419 -0.395613 0.903029 0.137708 
-0.139385 -0.189655 0.53012 1 1 0 -0.255658 -0.349598 0.901344 0.138991 
-0.175945 -0.157665 0.53012 1 1 0 -0.318862 -0.296341 0.900283 0.136871 
-0.203365 -0.116535 0.53012 1 1 0 -0.366132 -0.229271 0.901877 0.136566 
-0.226215 -0.070835 0.53012 1 1 0 -0.408151 -0.146791 0.901036 0.13748 
-0.235355 -0.025135 0.53012 1 1 0 -0.432312 -0.0595471 0.899756 0.135645 
-0.235355 0.025135 0.53012 1 1 0 -0.429264 0.0310024 0.902647 0.136642 
-0.226215 0.070835 0.53012 1 1 0 -0.414685 0.137836 0.899465 0.135953 
-0.203365 0.116535 0.53012 1 1 0 -0.38041 0.206104 0.901559 0.13526 
-0.175945 0.157665 0.53012 1 1 0 -0.329413 0.278091 0.902304 0.135645 
-0.139385 0.189655 0.53012 1 1 0 -0.270989 0.339905 0.900572 0.135953 
-0.098255 0.217075 0.53012 1 1 0 -0.186285 0.387802 0.902722 0.133159 
-0.047985 0.230785 0.53012 1 1 0 -0.0977386 0.419216 0.90261 0.138615 
-0.002285 0.235355 0.53012 1 1 0 -0.00358083 0.429699 0.902965 0.13748 
0.025135 0.116535 0.56668 1 1 0 0.034444 0.23996 0.970172 0.127305 
0.047985 0.111965 0.56668 1 1 0 0.0781989 0.227697 0.970587 0.124317 
0.070835 0.098255 0.56668 1 1 0 0.14238 0.194775 0.970459 0.127305 
0.089115 0.079975 0.56668 1 1 0 0.173122 0.169515 0.970203 0.126069 
0.102825 0.061695 0.56668 1 1 0 0.202513 0.135008 0.969929 0.126069 
0.116535 0.038845 0.56668 1 1 0 0.221954 0.0927569 0.970635 0.122114 
0.121105 0.011425 0.56668 1 1 0 0.237952 0.0319637 0.970751 0.126152 
0.121105 -0.011425 0.56668 1 1 0 0.240889 -0.0126783 0.97047 0.125405 
0.116535 -0.038845 0.56668 1 1 0 0.227314 -0.0678548 0.971455 0.125071 
0.102825 -0.061695 0.56668 1 1 0 0.209906 -0.124302 0.969788 0.129017 
0.089115 -0.079975 0.56668 1 1 0 0.18962 -0.148141 0.970618 0.125405 
0.070835 -0.098255 0.56668 1 1 0 0.150718 -0.184714 0.971167 0.126152 
0.047985 -0.111965 0.56668 1 1 0 0.107155 -0.21198 0.971382 0.125405 
0.025135 -0.116535 0.56668 1 1 0 0.0547008 -0.235451 0.970345 0.129582 
0.002285 -0.121105 0.56668 1 1 0 0.00939945 -0.236161 0.971668 0.124317 
-0.025135 -0.116535 0.56668 1 1 0 -0.0339521 -0.236533 0.97103 0.127305 
-0.047985 -0.111965 0.56668 1 1 0 -0.0769952 -0.224192 0.971499 0.125571 
-0.070835 -0.098255 0.56668 1 1 0 -0.139904 -0.191388 0.971492 0.127305 
-0.089115 -0.079975 0.56668 1 1 0 -0.170143 -0.166599 0.971234 0.126069 
-0.102825 -0.061695 0.56668 1 1 0 -0.199081 -0.13272 0.970954 0.126069 
-0.116535 -0.038845 0.56668 1 1 0 -0.21844 -0.0912885 0.971571 0.126483 
-0.121105 -0.011425 0.56668 1 1 0 -0.234714 -0.0315288 0.971553 0.126152 
-0.121105 0.011425 0.56668 1 1 0 -0.238223 0.0125381 0.97113 0.125405 
-0.116535 0.038845 0.56668 1 1 0 -0.225578 0.0673368 0.971895 0.125071 
-0.102825 0.061695 0.56668 1 1 0 -0.209192 0.123879 0.969996 0.129017 
-0.089115 0.079975 0.56668 1 1 0 -0.189402 0.14797 0.970686 0.125405 
-0.070835 0.098255 0.56668 1 1 0 -0.15105 0.185122 0.971037 0.126152 
-0.047985 0.111965 0.56668 1 1 0 -0.107887 0.213429 0.970983 0.125405 
-0.025135 0.116535 0.56668 1 1 0 -0.0552103 0.237645 0.969782 0.129582 
-0.002285 0.121105 0.56668 1 1 0 -0.00951895 0.239164 0.970933 0.124317 
0.002285 0.002285 0.58039 1 1 0 0 0 1 0.126483 
3 0 1 2 
3 0 2 3 
3 0 3 4 
3 0 4 5 
3 0 5 6 
3 0 6 7 
3 0 7 8 
3 0 8 9 
3 0 9 10 
3 0 10 11 
3 0 11 12 
3 0 12 13 
3 0 13 14 
3 0 14 15 
3 0 15 16 
3 0 16 17 
3 0 17 18 
3 0 18 19 
3 0 19 20 
3 0 20 21 
3 0 21 22 
3 0 22 23 
3 0 23 24 
3 0 24 25 
3 0 25 26 
3 0 26 27 
3 0 27 28 
3 0 28 29 
3 0 29 30 
3 0 30 1 
3 1 32 2 
3 32 1 31 
3 2 33 3 
3 33 2 32 
3 3 34 4 
3 34 3 33 
3 4 35 5 
3 35 4 34 
3 5 36 6 
3 36 5 35 
3 6 37 7 
3 37 6 36 
3 7 38 8 
3 38 7 37 
3 8 39 9 
3 39 8 38 
3 9 40 10 
3 40 9 39 
3 10 41 11 
3 41 10 40 
3 11 42 12 
3 42 11 41 
3 12 43 13 
3 43 12 42 
3 13 44 14 
3 44 13 43 
3 14 45 15 
3 45 14 44 
3 15 46 16 
3 46 15 45 
3 16 47 17 
3 47 16 46 
3 17 48 18 
3 48 17 47 
3 18 49 19 
3 49 18 48 
3 19 50 20 
3 50 19 49 
3 20 51 21 
3 51 20 50 
3 21 52 22 
3 52 21 51 
3 22 53 23 
3 53 22 52 
3 23 54 24 
3 54 23 53 
3 24 55 25 
3 55 24 54 
3 25 56 26 
3 56 25 55 
3 26 57 27 
3 57 26 56 
3 27 58 28 
3 58 27 57 
3 28 59 29 
3 59 28 58 
3 29 60 30 
3 60 29 59 
3 30 31 1 
3 31 30 60 
3 31 62 32 
3 62 31 61 
3 32 63 33 
3 63 32 62 
3 33 64 34 
3 64 33 63 
3 34 65 35 
3 65 34 64 
3 35 66 36 
3 66 35 65 
3 36 67 37 
3 67 36 66 
3 37 68 38 
3 68 37 67 
3 38 69 39 
3 69 38 68 
3 39 70 40 
3 70 39 69 
3 40 71 41 
3 71 40 70 
3 41 72 42 
3 72 41 71 
3 42 73 43 
3 73 42 72 
3 43 74 44 
3 74 43 73 
3 44 75 45 
3 75 44 74 
3 45 76 46 
3 76 45 75 
3 46 77 47 
3 77 46 76 
3 47 78 48 
3 78 47 77 
3 48 79 49 
3 79 48 78 
3 49 80 50 
3 80 49 79 
3 50 81 51 
3 81 50 80 
3 51 82 52 
3 82 51 81 
3 52 83 53 
3 83 52 82 
3 53 84 54 
3 84 53 83 
3 54 85 55 
3 85 54 84 
3 55 86 56 
3 86 55 85 
3 56 87 57 
3 87 56 86 
3 57 88 58 
3 88 57 87 
3 58 89 59 
3 89 58 88 
3 59 90 60 
3 90 59 89 
3 60 61 31 
3 61 60 90 
3 61 92 62 
3 92 61 91 
3 62 93 63 
3 93 62 92 
3 63 94 64 
3 94 63 93 
3 64 95 65 
3 95 64 94 
3 65 96 66 
3 96 65 95 
3 66 97 67 
3 97 66 96 
3 67 98 68 
3 98 67 97 
3 68 99 69 
3 99 68 98 
3 69 100 70 
3 100 69 99 
3 70 101 71 
3 101 70 100 
3 71 102 72 
3 102 71 101 
3 72 103 73 
3 103 72 102 
3 73 104 74 
3 104 73 103 
3 74 105 75 
3 105 74 104 
3 75 106 76 
3 106 75 105 
3 76 107 77 
3 107 76 106 
3 77 108 78 
3 108 77 107 
3 78 109 79 
3 109 78 108 
3 79 110 80 
3 110 79 109 
3 80 111 81 
3 111 80 110 
3 81 112 82 
3 112 81 111 
3 82 113 83 
3 113 82 112 
3 83 114 84 
3 114 83 113 
3 84 115 85 
3 115 84 114 
3 85 116 86 
3 116 85 115 
3 86 117 87 
3 117 86 116 
3 87 118 88 
3 118 87 117 
3 88 119 89 
3 119 88 118 
3 89 120 90 
3 120 89 119 
3 90 91 61 
3 91 90 120 
3 91 122 92 
3 122 91 121 
3 92 123 93 
3 123 92 122 
3 93 124 94 
3 124 93 123 
3 94 125 95 
3 125 94 124 
3 95 126 96 
3 126 95 125 
3 96 127 97 
3 127 96 126 
3 97 128 98 
3 128 97 127 
3 98 129 99 
3 129 98 128 
3 99 130 100 
3 130 99 129 
3 100 131 101 
3 131 100 130 
3 101 132 102 
3 132 101 131 
3 102 133 103 
3 133 102 132 
3 103 134 104 
3 134 103 133 
3 104 135 105 
3 135 104 134 
3 105 136 106 
3 136 105 135 
3 106 137 107 
3 137 106 136 
3 107 138 108 
3 138 107 137 
3 108 139 109 
3 139 108 138 
3 109 140 110 
3 140 109 139 
3 110 141 111 
3 141 110 140 
3 111 142 112 
3 142 111 141 
3 112 143 113 
3 143 112 142 
3 113 144 114 
3 144 113 143 
3 114 145 115 
3 145 114 144 
3 115 146 116 
3 146 115 145 
3 116 147 117 
3 147 116 146 
3 117 148 118 
3 148 117 147 
3 118 149 119 
3 149 118 148 
3 119 150 120 
3 150 119 149 
3 120 121 91 
3 121 120 150 
3 121 152 122 
3 152 121 151 
3 122 153 123 
3 153 122 152 
3 123 154 124 
3 154 123 153 
3 124 155 125 
3 155 124 154 
3 125 156 126 
3 156 125 155 
3 126 157 127 
3 157 126 156 
3 127 158 128 
3 158 127 157 
3 128 159 129 
3 159 128 158 
3 129 160 130 
3 160 129 159 
3 130 161 131 
3 161 130 160 
3 131 162 132 
3 162 131 161 
3 132 163 133 
3 163 132 162 
3 133 164 134 
3 164 133 163 
3 134 165 135 
3 165 134 164 
3 135 166 136 
3 166 135 165 
3 136 167 137 
3 167 136 166 
3 137 168 138 
3 168 137 167 
3 138 169 139 
3 169 138 168 
3 139 170 140 
3 170 139 169 
3 140 171 141 
3 171 140 170 
3 141 172 142 
3 172 141 171 
3 142 173 143 
3 173 142 172 
3 143 174 144 
3 174 143 173 
3 144 175 145 
3 175 144 174 
3 145 176 146 
3 176 145 175 
3 146 177 147 
3 177 146 176 
3 147 178 148 
3 178 147 177 
3 148 179 149 
3 179 148 178 
3 149 180 150 
3 180 149 179 
3 150 151 121 
3 151 150 180 
3 151 182 152 
3 182 151 181 
3 152 183 153 
3 183 152 182 
3 153 184 154 
3 184 153 183 
3 154 185 155 
3 185 154 184 
3 155 186 156 
3 186 155 185 
3 156 187 157 
3 187 156 186 
3 157 188 158 
3 188 157 187 
3 158 189 159 
3 189 158 188 
3 159 190 160 
3 190 159 189 
3 160 191 161 
3 191 160 190 
3 161 192 162 
3 192 161 191 
3 162 193 163 
3 193 162 192 
3 163 194 164 
3 194 163 193 
3 164 195 165 
3 195 164 194 
3 165 196 166 
3 196 165 195 
3 166 197 167 
3 197 166 196 
3 167 198 168 
3 198 167 197 
3 168 199 169 
3 199 168 198 
3 169 200 170 
3 200 169 199 
3 170 201 171 
3 201 170 200 
3 171 202 172 
3 202 171 201 
3 172 203 173 
3 203 172 202 
3 173 204 174 
3 204 173 203 
3 174 205 175 
3 205 174 204 
3 175 206 176 
3 206 175 205 
3 176 207 177 
3 207 176 206 
3 177 208 178 
3 208 177 207 
3 178 209 179 
3 209 178 208 
3 179 210 180 
3 210 179 209 
3 180 181 151 
3 181 180 210 
3 181 212 182 
3 212 181 211 
3 182 213 183 
3 213 182 212 
3 183 214 184 
3 214 183 213 
3 184 215 185 
3 215 184 214 
3 185 216 186 
3 216 185 215 
3 186 217 187 
3 217 186 216 
3 187 218 188 
3 218 187 217 
3 188 219 189 
3 219 188 218 
3 189 220 190 
3 220 189 219 
3 190 221 191 
3 221 190 220 
3 191 222 192 
3 222 191 221 
3 192 223 193 
3 223 192 222 
3 193 224 194 
3 224 193 223 
3 194 225 195 
3 225 194 224 
3 195 226 196 
3 226 195 225 
3 196 227 197 
3 227 196 226 
3 197 228 198 
3 228 197 227 
3 198 229 199 
3 229 198 228 
3 199 230 200 
3 230 199 229 
3 200 231 201 
3 231 200 230 
3 201 232 202 
3 232 201 231 
3 202 233 203 
3 233 202 232 
3 203 234 204 
3 234 203 233 
3 204 235 205 
3 235 204 234 
3 205 236 206 
3 236 205 235 
3 206 237 207 
3 237 206 236 
3 207 238 208 
3 238 207 237 
3 208 239 209 
3 239 208 238 
3 209 240 210 
3 240 209 239 
3 210 211 181 
3 211 210 240 
3 211 242 212 
3 242 211 241 
3 212 243 213 
3 243 212 242 
3 213 244 214 
3 244 213 243 
3 214 245 215 
3 245 214 244 
3 215 246 216 
3 246 215 245 
3 216 247 217 
3 247 216 246 
3 217 248 218 
3 248 217 247 
3 218 249 219 
3 249 218 248 
3 219 250 220 
3 250 219 249 
3 220 251 221 
3 251 220 250 
3 221 252 222 
3 252 221 251 
3 222 253 223 
3 253 222 252 
3 223 254 224 
3 254 223 253 
3 224 255 225 
3 255 224 254 
3 225 256 226 
3 256 225 255 
3 226 257 227 
3 257 226 256 
3 227 258 228 
3 258 227 257 
3 228 259 229 
3 259 228 258 
3 229 260 230 
3 260 229 259 
3 230 261 231 
3 261 230 260 
3 231 262 232 
3 262 231 261 
3 232 263 233 
3 263 232 262 
3 233 264 234 
3 264 233 263 
3 234 265 235 
3 265 234 264 
3 235 266 236 
3 266 235 265 
3 236 267 237 
3 267 236 266 
3 237 268 238 
3 268 237 267 
3 238 269 239 
3 269 238 268 
3 239 270 240 
3 270 239 269 
3 240 241 211 
3 241 240 270 
3 241 272 242 
3 272 241 271 
3 242 273 243 
3 273 242 272 
3 243 274 244 
3 274 243 273 
3 244 275 245 
3 275 244 274 
3 245 276 246 
3 276 245 275 
3 246 277 247 
3 277 246 276 
3 247 278 248 
3 278 247 277 
3 248 279 249 
3 279 248 278 
3 249 280 250 
3 280 249 279 
3 250 281 251 
3 281 250 280 
3 251 282 252 
3 282 251 281 
3 252 283 253 
3 283 252 282 
3 253 284 254 
3 284 253 283 
3 254 285 255 
3 285 254 284 
3 255 286 256 
3 286 255 285 
3 256 287 257 
3 287 256 286 
3 257 288 258 
3 288 257 287 
3 258 289 259 
3 289 258 288 
3 259 290 260 
3 290 259 289 
3 260 291 261 
3 291 260 290 
3 261 292 262 
3 292 261 291 
3 262 293 263 
3 293 262 292 
3 263 294 264 
3 294 263 293 
3 264 295 265 
3 295 264 294 
3 265 296 266 
3 296 265 295 
3 266 297 267 
3 297 266 296 
3 267 298 268 
3 298 267 297 
3 268 299 269 
3 299 268 298 
3 269 300 270 
3 300 269 299 
3 270 271 241 
3 271 270 300 
3 271 302 272 
3 302 271 301 
3 272 303 273 
3 303 272 302 
3 273 304 274 
3 304 273 303 
3 274 305 275 
3 305 274 304 
3 275 306 276 
3 306 275 305 
3 276 307 277 
3 307 276 306 
3 277 308 278 
3 308 277 307 
3 278 309 279 
3 309 278 308 
3 279 310 280 
3 310 279 309 
3 280 311 281 
3 311 280 310 
3 281 312 282 
3 312 281 311 
3 282 313 283 
3 313 282 312 
3 283 314 284 
3 314 283 313 
3 284 315 285 
3 315 284 314 
3 285 316 286 
3 316 285 315 
3 286 317 287 
3 317 286 316 
3 287 318 288 
3 318 287 317 
3 288 319 289 
3 319 288 318 
3 289 320 290 
3 320 289 319 
3 290 321 291 
3 321 290 320 
3 291 322 292 
3 322 291 321 
3 292 323 293 
3 323 292 322 
3 293 324 294 
3 324 293 323 
3 294 325 295 
3 325 294 324 
3 295 326 296 
3 326 295 325 
3 296 327 297 
3 327 296 326 
3 297 328 298 
3 328 297 327 
3 298 329 299 
3 329 298 328 
3 299 330 300 
3 330 299 329 
3 300 301 271 
3 301 300 330 
3 301 332 302 
3 332 301 331 
3 302 333 303 
3 333 302 332 
3 303 334 304 
3 334 303 333 
3 304 335 305 
3 335 304 334 
3 305 336 306 
3 336 305 335 
3 306 337 307 
3 337 306 336 
3 307 338 308 
3 338 307 337 
3 308 339 309 
3 339 308 338 
3 309 340 310 
3 340 309 339 
3 310 341 311 
3 341 310 340 
3 311 342 312 
3 342 311 341 
3 312 343 313 
3 343 312 342 
3 313 344 314 
3 344 313 343 
3 314 345 315 
3 345 314 344 
3 315 346 316 
3 346 315 345 
3 316 347 317 
3 347 316 346 
3 317 348 318 
3 348 317 347 
3 318 349 319 
3 349 318 348 
3 319 350 320 
3 350 319 349 
3 320 351 321 
3 351 320 350 
3 321 352 322 
3 352 321 351 
3 322 353 323 
3 353 322 352 
3 323 354 324 
3 354 323 353 
3 324 355 325 
3 355 324 354 
3 325 356 326 
3 356 325 355 
3 326 357 327 
3 357 326 356 
3 327 358 328 
3 358 327 357 
3 328 359 329 
3 359 328 358 
3 329 360 330 
3 360 329 359 
3 330 331 301 
3 331 330 360 
3 331 362 332 
3 362 331 361 
3 332 363 333 
3 363 332 362 
3 333 364 334 
3 364 333 363 
3 334 365 335 
3 365 334 364 
3 335 366 336 
3 366 335 365 
3 336 367 337 
3 367 336 366 
3 337 368 338 
3 368 337 367 
3 338 369 339 
3 369 338 368 
3 339 370 340 
3 370 339 369 
3 340 371 341 
3 371 340 370 
3 341 372 342 
3 372 341 371 
3 342 373 343 
3 373 342 372 
3 343 374 344 
3 374 343 373 
3 344 375 345 
3 375 344 374 
3 345 376 346 
3 376 345 375 
3 346 377 347 
3 377 346 376 
3 347 378 348 
3 378 347 377 
3 348 379 349 
3 379 348 378 
3 349 380 350 
3 380 349 379 
3 350 381 351 
3 381 350 380 
3 351 382 352 
3 382 351 381 
3 352 383 353 
3 383 352 382 
3 353 384 354 
3 384 353 383 
3 354 385 355 
3 385 354 384 
3 355 386 356 
3 386 355 385 
3 356 387 357 
3 387 356 386 
3 357 388 358 
3 388 357 387 
3 358 389 359 
3 389 358 388 
3 359 390 360 
3 390 359 389 
3 360 361 331 
3 361 360 390 
3 361 392 362 
3 392 361 391 
3 362 393 363 
3 393 362 392 
3 363 394 364 
3 394 363 393 
3 364 395 365 
3 395 364 394 
3 365 396 366 
3 396 365 395 
3 366 397 367 
3 397 366 396 
3 367 398 368 
3 398 367 397 
3 368 399 369 
3 399 368 398 
3 369 400 370 
3 400 369 399 
3 370 401 371 
3 401 370 400 
3 371 402 372 
3 402 371 401 
3 372 403 373 
3 403 372 402 
3 373 404 374 
3 404 373 403 
3 374 405 375 
3 405 374 404 
3 375 406 376 
3 406 375 405 
3 376 407 377 
3 407 376 406 
3 377 408 378 
3 408 377 407 
3 378 409 379 
3 409 378 408 
3 379 410 380 
3 410 379 409 
3 380 411 381 
3 411 380 410 
3 381 412 382 
3 412 381 411 
3 382 413 383 
3 413 382 412 
3 383 414 384 
3 414 383 413 
3 384 415 385 
3 415 384 414 
3 385 416 386 
3 416 385 415 
3 386 417 387 
3 417 386 416 
3 387 418 388 
3 418 387 417 
3 388 419 389 
3 419 388 418 
3 389 420 390 
3 420 389 419 
3 390 391 361 
3 391 390 420 
3 391 421 392 
3 392 421 393 
3 393 421 394 
3 394 421 395 
3 395 421 396 
3 396 421 397 
3 397 421 398 
3 398 421 399 
3 399 421 400 
3 400 421 401 
3 401 421 402 
3 402 421 403 
3 403 421 404 
3 404 421 405 
3 405 421 406 
3 406 421 407 
3 407 421 408 
3 408 421 409 
3 409 421 410 
3 410 421 411 
3 411 421 412 
3 412 421 413 
3 413 421 414 
3 414 421 415 
3 415 421 416 
3 416 421 417 
3 417 421 418 
3 418 421 419 
3 419 421 420 
3 420 421 391 
